<?xml version="1.0" encoding="utf-8"?>
<!-- Generator: Adobe Illustrator 25.0.1, SVG Export Plug-In . SVG Version: 6.00 Build 0)  -->
<svg version="1.1" id="Layer_1" xmlns="http://www.w3.org/2000/svg" xmlns:xlink="http://www.w3.org/1999/xlink" x="0px" y="0px"
	 viewBox="0 0 288 560" style="enable-background:new 0 0 288 560;" xml:space="preserve">
<style type="text/css">
	.st0{fill:#FFFFFF;}
</style>
<g>
	<path class="st0" d="M145.2,294.67c-3.06,2.09-6.38,3.97-9.93,5.64c-11.45,5.36-24.52,8.04-39.22,8.04
		c-24.25,0-43.34-7.83-57.28-23.49c-13.94-15.66-20.91-37.76-20.91-66.32v-1.72C7.71,236.6,1.99,259.03,1.99,282.8
		c0,79.99,64.85,144.84,144.84,144.84c14.3,0,28.1-2.08,41.15-5.94L145.2,294.67z"/>
	<path class="st0" d="M172.71,186.13h-44.35c-0.34-11.14-3.17-19.13-8.49-23.99c-5.32-4.86-13.43-7.29-24.33-7.29
		c-11.07,0-19.18,4.1-24.33,12.31c-5.15,8.21-7.86,21.31-8.11,39.31v12.94c0,19.51,2.47,33.45,7.41,41.83
		c4.94,8.37,13.45,12.56,25.53,12.56c10.22,0,18.04-2.39,23.44-7.16c5.41-4.77,8.28-12.35,8.62-22.73h0l-0.43-1.29h53.17
		l39.5,143.61l39.64-143.61h26.03C268.85,183.06,214.49,139.26,149.7,138C163.19,149.67,170.86,165.71,172.71,186.13z"/>
</g>
</svg>
